<svg xmlns="http://www.w3.org/2000/svg" width="8.735" height="8.735" viewBox="0 0 8.735 8.735">
  <path id="Icon_awesome-linkedin" data-name="Icon awesome-linkedin" d="M8.111,2.25H.622A.627.627,0,0,0,0,2.88v7.475a.627.627,0,0,0,.622.63H8.111a.628.628,0,0,0,.624-.63V2.88A.628.628,0,0,0,8.111,2.25ZM2.64,9.737H1.345V5.569h1.3V9.737ZM1.993,5a.751.751,0,1,1,.751-.751A.751.751,0,0,1,1.993,5Zm5.5,4.738H6.2V7.709c0-.484-.01-1.106-.673-1.106s-.778.526-.778,1.07V9.737H3.453V5.569H4.7v.569h.018a1.364,1.364,0,0,1,1.226-.673c1.31,0,1.554.864,1.554,1.987Z" transform="translate(4px, -1px)" fill="#fff"/>
</svg>
